# Blender v2.79 (sub 0) OBJ File: 'laproscope.blend'
# www.blender.org
mtllib laparoscope_left_move.mtl
o Left_Handle_move_Right_Handle.002
v -2.195868 2.206579 -0.782184
v -1.691008 -1.162560 -0.000000
v -2.195869 2.206579 0.000000
v -2.195868 2.206579 0.782185
v -1.691007 -1.162560 0.782184
v -0.127225 -1.748295 0.782184
v -0.127225 -1.748295 -0.000000
v 1.755236 -0.845147 -0.000000
v 1.646066 -0.845147 -0.750358
v 1.646066 -0.845148 0.750358
v -0.127226 4.281379 2.346554
v 0.380188 4.281379 2.319043
v 0.869825 4.281379 2.183096
v 1.318790 4.281379 1.945069
v 1.706090 4.281379 1.616094
v 2.013614 4.281379 1.211552
v 2.226985 4.281379 0.750359
v 2.226985 4.281379 -0.750357
v 2.013615 4.281379 -1.211550
v 1.706090 4.281379 -1.616092
v 1.318791 4.281379 -1.945068
v 0.869826 4.281379 -2.183094
v 0.380190 4.281379 -2.319041
v -0.127224 4.281379 -2.346553
v 2.336155 4.281379 0.000001
v 1.459570 8.601965 -0.226673
v 0.246980 8.601965 -1.256740
v 0.246979 8.601965 1.788851
v 0.568470 8.601965 1.699581
v 0.863257 8.601965 1.543280
v 1.117555 8.601965 1.327257
v 0.568471 8.601965 -1.167472
v -0.086184 8.601965 -1.274805
v 1.319473 8.601965 1.061613
v 1.319473 8.601965 -0.529513
v 1.117555 8.601965 -0.795154
v 1.459570 8.601965 0.758771
v 0.863258 8.601965 -1.011173
v 1.531250 8.601965 0.266053
v -0.086185 8.601965 1.806918
v -0.013216 12.732845 -1.721002
v -0.002770 12.733112 -1.722041
v 0.007278 12.732125 -1.724931
v 0.016457 12.729929 -1.729535
v 0.024338 12.726626 -1.735639
v 0.030553 12.722373 -1.742957
v 0.034811 12.717367 -1.751147
v 0.034362 12.700282 -1.777026
v 0.029828 12.694788 -1.784741
v 0.023371 12.689831 -1.791375
v 0.015293 12.685642 -1.796617
v 0.005971 12.682419 -1.800222
v -0.004158 12.680311 -1.802021
v -0.014621 12.679417 -1.801931
v 0.036836 12.708950 -1.764208
v 0.371660 11.337142 0.451095
v 0.943895 11.015662 -0.392277
v 0.125179 10.645351 -1.236335
v 0.705193 11.257380 0.225333
v -0.081131 10.636988 -1.239206
v 0.825769 11.198102 0.068522
v 0.907517 11.129396 -0.108223
v 0.174299 11.353895 0.509490
v 0.551427 11.304461 0.354876
v 0.800107 10.827933 -0.843560
v 0.670962 10.763611 -0.991297
v 0.510228 10.710178 -1.109414
v 0.325419 10.670135 -1.192386
v -0.031428 11.353937 0.527331
v 0.891623 10.900138 -0.673109
v 1.806131 6.769140 -0.297070
v -0.104719 6.769140 2.216793
v -0.104717 6.769140 -1.592743
v 0.307137 6.769140 -1.570411
v 1.894741 6.769140 0.312022
v 0.704562 6.769140 -1.460060
v 1.068974 6.769140 -1.266848
v 1.806130 6.769140 0.921106
v 1.383334 6.769140 -0.999811
v 1.632944 6.769140 -0.671433
v 1.632944 6.769140 1.295470
v 1.383334 6.769140 1.623851
v 1.068973 6.769140 1.890892
v 0.704560 6.769140 2.084106
v 0.307135 6.769140 2.194460
v 1.632271 7.688980 -0.251100
v -0.095421 7.688980 2.022510
v -0.095419 7.688980 -1.422826
v 0.276958 7.688980 -1.402632
v 1.712388 7.688980 0.299755
v 0.636289 7.688980 -1.302840
v 0.965772 7.688980 -1.128115
v 1.632270 7.688980 0.850615
v 1.250000 7.688980 -0.886625
v 1.475684 7.688980 -0.589659
v 1.475684 7.688980 1.189204
v 1.250000 7.688980 1.486208
v 0.965771 7.688980 1.727738
v 0.636288 7.688980 1.902497
v 0.276956 7.688980 2.002310
v -0.115940 5.528687 -1.979252
v 0.343563 5.528687 -1.954338
v 2.114840 5.528687 0.145798
v 0.786966 5.528687 -1.831223
v 1.193538 5.528687 -1.615666
v 2.015978 5.528687 0.825325
v 1.544267 5.528687 -1.317745
v 1.822755 5.528687 -0.951390
v 1.822754 5.528687 1.242984
v 1.544267 5.528687 1.609340
v 1.193537 5.528687 1.907263
v 0.786965 5.528687 2.122822
v 0.343561 5.528687 2.245937
v 2.015978 5.528687 -0.533732
v -0.115942 5.528687 2.270852
v 0.458707 9.987505 1.281226
v 1.258527 9.731990 0.134915
v 0.209970 9.435550 -1.089629
v 0.912476 9.924384 0.984388
v -0.064058 9.428586 -1.105101
v 1.080031 9.877290 0.772039
v 1.196919 9.822624 0.529685
v 0.193709 10.000582 1.351833
v 0.702089 9.961704 1.156805
v 1.088526 9.582097 -0.503469
v 0.923808 9.530624 -0.717017
v 0.715727 9.487791 -0.890942
v 1.202180 9.639800 -0.260284
v -0.080511 10.000321 1.365326
v 0.474014 9.455597 -1.017113
v -0.127226 2.206579 2.346554
v 0.380188 2.149990 2.319042
v 0.869825 2.149990 2.183095
v 1.318790 2.149990 1.945069
v 1.706090 2.149990 1.616094
v 2.013614 2.149990 1.211552
v 2.226985 2.149990 0.750359
v 2.226985 2.149990 -0.750358
v 2.013615 2.149990 -1.211550
v 1.706090 2.149990 -1.616093
v 1.318791 2.149990 -1.945068
v 0.869826 2.149990 -2.183095
v 0.380190 2.149990 -2.319042
v -0.127224 2.206579 -2.346554
v 2.336155 2.149990 0.000001
v 2.336155 1.175936 0.000000
v -0.127225 4.281379 -1.564368
v -0.127225 4.281379 -0.782184
v -0.127225 4.281379 0.000000
v -0.127225 4.281379 0.782185
v -0.127224 4.281379 1.564369
v -0.127225 2.206579 -1.564369
v -0.127225 2.206579 -0.782184
v -0.127225 2.206579 0.782185
v -0.127224 2.206579 1.564369
v 2.226985 1.175936 0.750359
v 2.226985 1.175936 -0.750358
v -2.195868 0.193748 -0.782184
v -2.195869 0.193748 0.000000
v -2.195868 0.193748 0.782184
v 2.193502 0.021152 -0.000000
v 2.084332 0.021152 0.750359
v 2.084332 0.021152 -0.750358
v -0.127225 0.193748 0.782184
v -0.127225 0.193748 -0.782184
v 0.909736 -1.420658 -0.766271
v 1.049880 1.691258 -0.766271
v 0.978554 0.107450 -0.766271
v 1.049880 1.691258 0.766272
v 0.909735 -1.420658 0.766271
v 0.978554 0.107450 0.766271
v 0.909736 -1.420658 0.009521
v 0.104435 11.574313 -1.501515
v 0.498314 12.077867 -0.485915
v 0.675276 11.889539 -0.915455
v 0.645992 11.979864 -0.717962
v -0.041971 11.562959 -1.503334
v 0.258818 12.134265 -0.328690
v 0.585812 12.033080 -0.595026
v 0.246032 11.598690 -1.471133
v 0.376198 11.634949 -1.413611
v 0.488849 11.681393 -1.331638
v 0.578716 11.735852 -1.229047
v 0.387590 12.112129 -0.395730
v 0.118017 12.143241 -0.287928
v -0.028227 12.138635 -0.275351
v 0.641597 11.795780 -1.110635
v -0.075736 12.630674 -0.889752
v 0.466101 12.305142 -1.380377
v 0.118122 12.112991 -1.680696
v 0.313804 12.565355 -0.983692
v 0.473994 12.390112 -1.249920
v 0.437171 12.473123 -1.123184
v 0.014736 12.105361 -1.694059
v 0.131609 12.621321 -0.900772
v 0.384583 12.522832 -1.047781
v 0.215778 12.132600 -1.649052
v 0.303136 12.163270 -1.600607
v 0.376112 12.203567 -1.537626
v 0.431294 12.251606 -1.463053
v 0.228144 12.598705 -0.933913
v 0.028712 12.632147 -0.885819
v -0.046809 12.741346 -1.209008
v 0.334189 12.495798 -1.566951
v 0.077223 12.349692 -1.771699
v 0.232264 12.692567 -1.283579
v 0.342485 12.560152 -1.474984
v 0.318457 12.622944 -1.384700
v 0.002391 12.343733 -1.778953
v 0.102514 12.734627 -1.221170
v 0.282033 12.660493 -1.330336
v 0.148287 12.364709 -1.751414
v 0.212259 12.388086 -1.719044
v 0.266149 12.418726 -1.676106
v 0.307436 12.455199 -1.624606
v 0.171477 12.717670 -1.246614
v 0.028600 12.742644 -1.208436
v -0.026516 12.760736 -1.522212
v 0.173613 12.624194 -1.715026
v 0.033488 12.547598 -1.823159
v 0.122239 12.731657 -1.563290
v 0.179122 12.658940 -1.665969
v 0.167281 12.693152 -1.617663
v -0.006715 12.545093 -1.826691
v 0.053398 12.755664 -1.529384
v 0.148381 12.713821 -1.588477
v 0.071820 12.555041 -1.812653
v 0.106490 12.567079 -1.795664
v 0.135876 12.583141 -1.772987
v 0.158605 12.602482 -1.745683
v 0.090077 12.745826 -1.543280
v 0.013919 12.760713 -1.522250
vn -0.0000 0.0000 -1.0000
vn -0.0149 0.0003 -0.9999
vn -0.0183 0.0039 0.9998
vn 0.0000 -0.2707 0.9627
vn 1.0000 -0.0000 0.0000
vn 0.9999 -0.0139 -0.0036
vn 0.0000 -0.0000 1.0000
vn 0.7082 -0.7061 -0.0000
vn -0.0137 0.0011 0.9999
vn -0.0139 0.0003 -0.9999
vn -0.0139 0.0003 0.9999
vn -0.0137 0.0011 -0.9999
vn -0.0183 0.0039 -0.9998
vn 0.0323 0.9993 0.0190
vn 0.0323 0.9993 -0.0190
vn -0.0135 -0.0000 0.9999
vn -0.0135 0.0000 -0.9999
vn 0.9992 0.0128 0.0388
vn 0.9999 -0.0120 0.0042
vn 0.9999 -0.0101 0.0000
vn 1.0000 -0.0090 0.0000
vn 0.9995 -0.0299 -0.0083
vn 0.9994 0.0144 0.0299
vn 0.9964 0.0393 0.0749
vn 0.9979 0.0364 0.0532
vn 0.0271 0.9996 0.0000
vn 0.7078 0.7064 0.0000
vn 0.5528 0.5517 -0.6245
vn 0.0164 0.7663 -0.6423
vn 0.7312 0.1317 -0.6693
vn 0.9930 0.1179 0.0000
vn -0.6682 0.2053 0.7150
vn -0.5506 0.4759 0.6858
vn -0.7703 0.6376 0.0000
vn -0.9579 0.2870 0.0000
vn -0.5506 0.4757 -0.6859
vn -0.6682 0.2053 -0.7150
vn -0.8379 -0.2076 -0.5047
vn -0.8346 -0.2400 -0.4958
vn -0.9349 -0.2281 -0.2717
vn -0.9385 -0.2022 -0.2798
vn -0.8427 -0.1834 0.5062
vn -0.8364 -0.1930 0.5130
vn -0.7079 -0.1871 0.6811
vn -0.7147 -0.1792 0.6761
vn -0.9416 -0.1888 0.2788
vn -0.9366 -0.2022 0.2863
vn -0.3648 -0.1732 0.9148
vn -0.3599 -0.1808 0.9153
vn -0.1571 -0.1800 0.9710
vn -0.1595 -0.1717 0.9721
vn 0.6846 -0.1655 -0.7099
vn 0.6792 -0.2018 -0.7057
vn -0.1557 -0.2646 -0.9517
vn -0.1578 -0.2181 -0.9631
vn -0.9809 -0.1946 -0.0009
vn -0.9769 -0.2135 0.0069
vn -0.5478 -0.2147 -0.8085
vn -0.5447 -0.2562 -0.7985
vn -0.7060 -0.2489 -0.6630
vn -0.7093 -0.2116 -0.6724
vn 0.6840 -0.1380 0.7162
vn 0.6898 -0.1305 0.7121
vn -0.3584 -0.2616 -0.8961
vn -0.3611 -0.2169 -0.9069
vn -0.5464 -0.1831 0.8172
vn -0.5528 -0.1757 0.8145
vn -0.1708 0.0141 0.9852
vn -0.0324 -0.5377 0.8425
vn 0.6290 -0.4046 0.6637
vn 0.6133 0.0396 0.7888
vn -0.6663 -0.6266 0.4042
vn -0.2851 -0.7945 0.5361
vn -0.2925 -0.7334 0.6136
vn -0.6872 -0.4772 0.5478
vn -0.3358 -0.0391 0.9411
vn -0.1123 -0.5591 0.8214
vn -0.4765 -0.1213 0.8708
vn -0.1811 -0.5923 0.7851
vn -0.5900 -0.7576 0.2790
vn -0.2497 -0.8480 0.4674
vn -0.5843 -0.2249 0.7797
vn -0.2342 -0.6342 0.7368
vn -0.6539 -0.3410 0.6753
vn -0.2691 -0.6811 0.6809
vn -0.4902 -0.8509 0.1888
vn -0.1958 -0.8866 0.4190
vn -0.3914 -0.9113 0.1278
vn -0.1487 -0.9102 0.3865
vn -0.2829 -0.9556 0.0822
vn -0.0972 -0.9268 0.3627
vn -0.1681 -0.9844 0.0522
vn -0.0432 -0.9368 0.3472
vn -0.0502 -0.9980 0.0373
vn 0.0117 -0.9404 0.3399
vn 0.6985 -0.7130 0.0611
vn 0.6643 -0.6942 0.2770
vn 0.6624 -0.3179 -0.6784
vn 0.6519 -0.4774 -0.5892
vn -0.1564 -0.6184 -0.7701
vn -0.1556 -0.4137 -0.8970
vn -0.3547 -0.5956 -0.7207
vn -0.3576 -0.4026 -0.8426
vn -0.5379 -0.5559 -0.6338
vn -0.5431 -0.3831 -0.7472
vn -0.6973 -0.5006 -0.5129
vn -0.7035 -0.3561 -0.6150
vn -0.8255 -0.4319 -0.3632
vn -0.8314 -0.3229 -0.4523
vn -0.9266 -0.3390 -0.1624
vn -0.9308 -0.2788 -0.2364
vn -0.9360 -0.1722 0.3069
vn -0.9333 -0.1037 0.3438
vn -0.8339 -0.0060 0.5518
vn -0.8373 -0.1288 0.5314
vn -0.7046 0.0665 0.7065
vn -0.7098 -0.0980 0.6975
vn -0.5404 0.1252 0.8320
vn -0.5483 -0.0738 0.8330
vn -0.9711 -0.2212 0.0891
vn -0.9740 -0.2240 0.0341
vn -0.3493 0.1668 0.9220
vn -0.3604 -0.0572 0.9310
vn -0.1409 0.1888 0.9718
vn -0.1551 -0.0486 0.9867
vn 0.7240 0.1182 0.6796
vn 0.7225 -0.0418 0.6901
vn -0.5401 -0.2713 0.7967
vn -0.5482 -0.2320 0.8035
vn -0.3612 -0.2375 0.9017
vn -0.3550 -0.2824 0.8911
vn -0.3696 -0.0615 -0.9271
vn -0.3653 -0.1296 -0.9218
vn -0.5537 -0.1357 -0.8216
vn -0.5599 -0.0742 -0.8252
vn -0.9490 -0.1413 -0.2816
vn -0.9431 -0.1678 -0.2870
vn -0.9830 -0.1836 -0.0067
vn -0.9846 -0.1748 0.0003
vn -0.7018 -0.2557 0.6649
vn -0.7100 -0.2242 0.6675
vn -0.1616 -0.0541 -0.9854
vn -0.1597 -0.1259 -0.9791
vn -0.7232 -0.0917 -0.6845
vn -0.7159 -0.1441 -0.6831
vn -0.8444 -0.1545 -0.5130
vn -0.8515 -0.1131 -0.5119
vn -0.1549 -0.2887 0.9448
vn -0.1578 -0.2406 0.9577
vn 0.7016 -0.1779 0.6900
vn 0.6858 -0.2167 0.6948
vn -0.9408 -0.2011 0.2729
vn -0.9373 -0.2094 0.2787
vn 0.6895 -0.0439 -0.7229
vn 0.6691 -0.0989 -0.7366
vn -0.8391 -0.2146 0.4999
vn -0.8325 -0.2362 0.5011
vn -0.8571 -0.0588 -0.5118
vn -0.9574 -0.0719 -0.2797
vn -0.8494 -0.1162 0.5148
vn -0.7184 -0.1253 0.6842
vn -0.9519 -0.1037 0.2881
vn -0.3654 -0.1379 0.9206
vn -0.1596 -0.1408 0.9771
vn 0.6818 -0.0251 -0.7311
vn -0.1624 -0.0312 -0.9862
vn -0.9961 -0.0876 0.0050
vn -0.5625 -0.0407 -0.8257
vn -0.7271 -0.0489 -0.6848
vn 0.6574 -0.1093 0.7456
vn -0.3713 -0.0346 -0.9279
vn -0.5545 -0.1327 0.8215
vn -0.5173 0.6959 0.4981
vn -0.6149 0.6962 0.3703
vn -0.8407 0.2089 0.4995
vn -1.0000 0.0000 0.0000
vn -0.8407 0.2089 -0.4995
vn -0.6149 0.6962 -0.3703
vn -0.5173 0.6959 -0.4981
vn 0.5636 0.5588 0.6084
vn -0.0982 0.7013 0.7060
vn -0.3942 0.6949 -0.6013
vn -0.2518 0.6934 0.6751
vn -0.2518 0.6934 -0.6751
vn -0.3942 0.6949 0.6013
vn -0.0982 0.7013 -0.7060
vn 0.5636 0.5588 -0.6084
vn -0.6720 0.0414 0.7393
vn -0.9981 0.0611 0.0000
vn -0.6720 0.0414 -0.7393
vn 0.9242 -0.3820 0.0000
vn 0.7071 0.0000 0.7071
vn 0.7174 -0.2965 0.6304
vn 0.7174 -0.2965 -0.6304
vn -0.3398 0.6555 -0.6744
vn -0.4982 0.8670 -0.0003
vn -0.5109 0.6919 0.5101
vn 0.6763 -0.5552 -0.4840
vn -0.1295 -0.7429 -0.6567
vn -0.3243 -0.7197 -0.6139
vn -0.5060 -0.6749 -0.5370
vn -0.6663 -0.6100 -0.4288
vn -0.7974 -0.5271 -0.2936
vn -0.9048 -0.4115 -0.1096
vn -0.9282 -0.1091 0.3557
vn -0.8364 0.0188 0.5478
vn -0.7126 0.1169 0.6917
vn -0.5532 0.1979 0.8092
vn -0.9575 -0.2620 0.1207
vn -0.3658 0.2575 0.8943
vn -0.1599 0.2922 0.9429
vn 0.7000 0.2053 0.6840
vn 0.7031 -0.6319 -0.3261
vn -0.0806 -0.8714 -0.4838
vn -0.2656 -0.8506 -0.4538
vn -0.4402 -0.8066 -0.3945
vn -0.5974 -0.7404 -0.3080
vn -0.7304 -0.6539 -0.1974
vn -0.8459 -0.5314 -0.0455
vn -0.9128 -0.1931 0.3598
vn -0.8429 -0.0404 0.5365
vn -0.7369 0.0795 0.6713
vn -0.5923 0.1824 0.7848
vn -0.9177 -0.3670 0.1517
vn -0.4161 0.2620 0.8707
vn -0.2174 0.3129 0.9246
vn 0.6278 0.2626 0.7327
vn 0.6977 -0.7090 -0.1021
vn -0.0616 -0.9785 -0.1970
vn -0.2159 -0.9599 -0.1786
vn -0.3643 -0.9208 -0.1393
vn -0.5022 -0.8611 -0.0795
vn -0.6243 -0.7811 -0.0001
vn -0.7408 -0.6619 0.1141
vn -0.8401 -0.3167 0.4403
vn -0.7930 -0.1521 0.5899
vn -0.7053 -0.0164 0.7087
vn -0.5760 0.1033 0.8108
vn -0.8243 -0.4983 0.2687
vn -0.4117 0.1979 0.8896
vn -0.2217 0.2597 0.9398
vn 0.6232 0.2322 0.7468
usemtl None
s off
f 164//1 160//1 4//1 154//1
f 171//2 170//2 6//2 164//2
f 168//3 166//3 9//3 163//3
f 153//4 167//4 157//4
f 155//5 151//5 11//5 131//5
f 120//6 60//6 69//6 129//6
f 144//5 24//5 147//5 152//5
f 152//5 147//5 148//5 153//5
f 154//5 150//5 151//5 155//5
f 154//1 4//1 150//1
f 153//7 148//7 1//7
f 4//8 3//8 1//8 148//8 149//8 150//8
f 167//9 168//9 163//9 157//9
f 153//7 1//7 158//7 165//7
f 169//10 171//10 164//10 154//10
f 6//1 5//1 160//1 164//1
f 153//11 165//11 168//11 167//11
f 156//12 162//12 171//12 169//12
f 162//13 10//13 170//13 171//13
f 136//14 137//14 154//14 155//14 131//14 132//14 133//14 134//14 135//14
f 143//15 144//15 152//15 153//15 138//15 139//15 140//15 141//15 142//15
f 153//16 157//16 138//16
f 154//17 137//17 156//17 169//17
f 224//18 54//18 41//18 218//18
f 129//19 40//19 33//19 120//19
f 40//20 87//20 88//20 33//20
f 87//20 72//20 73//20 88//20
f 72//21 115//21 101//21 73//21
f 115//21 11//21 151//21 150//21 149//21 148//21 147//21 24//21 101//21
f 60//22 177//22 186//22 69//22
f 177//23 194//23 188//23 186//23
f 194//24 209//24 203//24 188//24
f 209//25 224//25 218//25 203//25
s 1
f 7//26 2//27 5//28 6//29
f 160//30 5//28 2//27 159//31
f 163//32 9//33 8//34 161//35
f 161//35 8//34 10//36 162//37
f 96//38 34//39 37//40 93//41
f 95//42 35//43 36//44 94//45
f 86//46 26//47 35//43 95//42
f 91//48 32//49 27//50 89//51
f 87//52 40//53 28//54 100//55
f 90//56 39//57 26//47 86//46
f 98//58 30//59 31//60 97//61
f 89//51 27//50 33//62 88//63
f 97//61 31//60 34//39 96//38
f 100//55 28//54 29//64 99//65
f 94//45 36//44 38//66 92//67
f 93//41 37//40 39//57 90//56
f 99//65 29//64 30//59 98//58
f 92//67 38//66 32//49 91//48
f 220//68 53//69 54//70 224//71
f 222//72 55//73 48//74 219//75
f 227//76 52//77 53//69 220//68
f 228//78 51//79 52//77 227//76
f 223//80 47//81 55//73 222//72
f 229//82 50//83 51//79 228//78
f 230//84 49//85 50//83 229//82
f 219//75 48//74 49//85 230//84
f 226//86 46//87 47//81 223//80
f 221//88 45//89 46//87 226//86
f 231//90 44//91 45//89 221//88
f 225//92 43//93 44//91 231//90
f 232//94 42//95 43//93 225//92
f 218//96 41//97 42//95 232//94
f 129//98 69//99 63//100 123//101
f 123//101 63//100 56//102 116//103
f 116//103 56//102 64//104 124//105
f 124//105 64//104 59//106 119//107
f 119//107 59//106 61//108 121//109
f 121//109 61//108 62//110 122//111
f 128//112 70//113 65//114 125//115
f 125//115 65//114 66//116 126//117
f 126//117 66//116 67//118 127//119
f 122//111 62//110 57//120 117//121
f 127//119 67//118 68//122 130//123
f 130//123 68//122 58//124 118//125
f 117//121 57//120 70//113 128//112
f 118//125 58//124 60//126 120//127
f 105//128 77//129 76//130 104//131
f 112//132 84//133 83//134 111//135
f 106//136 78//137 75//138 103//139
f 107//140 79//141 77//129 105//128
f 113//142 85//143 84//133 112//132
f 110//144 82//145 81//146 109//147
f 102//148 74//149 73//150 101//151
f 111//135 83//134 82//145 110//144
f 103//139 75//138 71//152 114//153
f 115//154 72//155 85//143 113//142
f 104//131 76//130 74//149 102//148
f 114//153 71//152 80//156 108//157
f 108//157 80//156 79//141 107//140
f 109//147 81//146 78//137 106//136
f 77//129 92//67 91//48 76//130
f 84//133 99//65 98//58 83//134
f 78//137 93//41 90//56 75//138
f 79//141 94//45 92//67 77//129
f 85//143 100//55 99//65 84//133
f 82//145 97//61 96//38 81//146
f 74//149 89//51 88//63 73//150
f 83//134 98//58 97//61 82//145
f 75//138 90//56 86//46 71//152
f 72//155 87//52 100//55 85//143
f 76//130 91//48 89//51 74//149
f 71//152 86//46 95//42 80//156
f 80//156 95//42 94//45 79//141
f 81//146 96//38 93//41 78//137
f 16//158 109//147 106//136 17//159
f 19//160 108//157 107//140 20//161
f 18//162 114//153 108//157 19//160
f 22//163 104//131 102//148 23//164
f 11//165 115//154 113//142 12//166
f 25//167 103//139 114//153 18//162
f 14//168 111//135 110//144 15//169
f 23//164 102//148 101//151 24//170
f 15//169 110//144 109//147 16//158
f 12//166 113//142 112//132 13//171
f 20//161 107//140 105//128 21//172
f 17//159 106//136 103//139 25//167
f 13//171 112//132 111//135 14//168
f 21//172 105//128 104//131 22//163
f 27//50 118//125 120//127 33//62
f 39//57 117//121 128//112 26//47
f 32//49 130//123 118//125 27//50
f 38//66 127//119 130//123 32//49
f 37//40 122//111 117//121 39//57
f 36//44 126//117 127//119 38//66
f 35//43 125//115 126//117 36//44
f 26//47 128//112 125//115 35//43
f 34//39 121//109 122//111 37//40
f 31//60 119//107 121//109 34//39
f 30//59 124//105 119//107 31//60
f 29//64 116//103 124//105 30//59
f 28//54 123//101 116//103 29//64
f 40//53 129//98 123//101 28//54
f 20//161 140//173 139//174 19//160
f 18//162 138//175 145//176 25//167
f 19//160 139//174 138//175 18//162
f 25//167 145//176 137//177 17//159
f 17//159 137//177 136//178 16//158
f 16//158 136//178 135//179 15//169
f 24//170 144//180 143//181 23//164
f 15//169 135//179 134//182 14//168
f 23//164 143//181 142//183 22//163
f 14//168 134//182 133//184 13//171
f 22//163 142//183 141//185 21//172
f 13//171 133//184 132//186 12//166
f 21//172 141//185 140//173 20//161
f 12//166 132//186 131//187 11//165
f 138//175 157//188 146//189 145//176
f 145//176 146//189 156//190 137//177
f 146//189 161//35 162//37 156//190
f 157//188 163//32 161//35 146//189
f 3//191 159//31 158//192 1//193
f 4//194 160//30 159//31 3//191
f 170//195 10//36 8//34 172//196
f 8//34 9//33 166//197 172//196
f 7//26 6//29 170//195 172//196
f 69//99 186//198 185//199 63//100
f 63//100 185//199 178//200 56//102
f 56//102 178//200 184//201 64//104
f 64//104 184//201 174//202 59//106
f 59//106 174//202 179//203 61//108
f 61//108 179//203 176//204 62//110
f 70//113 187//205 183//206 65//114
f 65//114 183//206 182//207 66//116
f 66//116 182//207 181//208 67//118
f 62//110 176//204 175//209 57//120
f 67//118 181//208 180//210 68//122
f 68//122 180//210 173//211 58//124
f 57//120 175//209 187//205 70//113
f 58//124 173//211 177//212 60//126
f 186//198 188//213 202//214 185//199
f 185//199 202//214 195//215 178//200
f 178//200 195//215 201//216 184//201
f 184//201 201//216 191//217 174//202
f 174//202 191//217 196//218 179//203
f 179//203 196//218 193//219 176//204
f 187//205 189//220 200//221 183//206
f 183//206 200//221 199//222 182//207
f 182//207 199//222 198//223 181//208
f 176//204 193//219 192//224 175//209
f 181//208 198//223 197//225 180//210
f 180//210 197//225 190//226 173//211
f 175//209 192//224 189//220 187//205
f 173//211 190//226 194//227 177//212
f 188//213 203//228 217//229 202//214
f 202//214 217//229 210//230 195//215
f 195//215 210//230 216//231 201//216
f 201//216 216//231 206//232 191//217
f 191//217 206//232 211//233 196//218
f 196//218 211//233 208//234 193//219
f 189//220 204//235 215//236 200//221
f 200//221 215//236 214//237 199//222
f 199//222 214//237 213//238 198//223
f 193//219 208//234 207//239 192//224
f 198//223 213//238 212//240 197//225
f 197//225 212//240 205//241 190//226
f 192//224 207//239 204//235 189//220
f 190//226 205//241 209//242 194//227
f 203//228 218//96 232//94 217//229
f 217//229 232//94 225//92 210//230
f 210//230 225//92 231//90 216//231
f 216//231 231//90 221//88 206//232
f 206//232 221//88 226//86 211//233
f 211//233 226//86 223//80 208//234
f 204//235 219//75 230//84 215//236
f 215//236 230//84 229//82 214//237
f 214//237 229//82 228//78 213//238
f 208//234 223//80 222//72 207//239
f 213//238 228//78 227//76 212//240
f 212//240 227//76 220//68 205//241
f 207//239 222//72 219//75 204//235
f 205//241 220//68 224//71 209//242
f 53//69 52//77 51//79 50//83 49//85 48//74 55//73 47//81 46//87 45//89 44//91 43//93 42//95 41//97 54//70
